<svg xmlns="http://www.w3.org/2000/svg" width="54.405" height="54.405" viewBox="0 0 54.405 54.405"><defs><style>.a{fill:#63816d;}</style></defs><path class="a" d="M39.847,23.377a2.125,2.125,0,0,1-2.125-2.125,1.063,1.063,0,1,0-2.125,0,2.125,2.125,0,1,1-4.25,0,5.313,5.313,0,1,1,10.626,0A2.125,2.125,0,0,1,39.847,23.377ZM23.164,21.252a5.313,5.313,0,1,0-10.626,0,2.125,2.125,0,1,0,4.25,0,1.063,1.063,0,0,1,2.125,0,2.125,2.125,0,0,0,4.25,0ZM41.277,50.484a2.125,2.125,0,0,0-2.2-3.635,23.155,23.155,0,1,1,7.187-6.908A2.125,2.125,0,0,0,49.8,42.3,27.188,27.188,0,0,0,7.967,7.967a27.205,27.205,0,0,0,33.31,42.517ZM36.341,30.921a2.12,2.12,0,0,0-1.693.844,10.788,10.788,0,0,1-14.891,0A2.123,2.123,0,1,0,16.6,34.583a14.944,14.944,0,0,0,21.208,0,2.123,2.123,0,0,0-1.466-3.661Z" transform="translate(0 0)"/></svg>