<svg xmlns="http://www.w3.org/2000/svg" width="24.753" height="24.675" viewBox="0 0 24.753 24.675">
  <g id="Group_56" data-name="Group 56" transform="translate(-35.964 -443)">
    <rect id="Rectangle_507" data-name="Rectangle 507" width="24" height="24" transform="translate(36 443)" fill="none"/>
    <g id="Group_51" data-name="Group 51" transform="translate(37 444)">
      <path id="Path_763" data-name="Path 763" d="M1062.515,1455.974s5.774-3.694,9.285-.8,6.889.964,6.709,2.223-2.635,2.468-7.987,1.255" transform="translate(-1062.515 -1440.052)" fill="none" stroke="#404040" stroke-linecap="round" stroke-linejoin="round" stroke-width="1.5"/>
      <path id="Path_764" data-name="Path 764" d="M1064.82,1461.93s2.189-1.882,2.595-1.75,5.53,2.758,7.228,2.8,12.482-6.524,10.6-7.676c-.921-.564-3.141,1.219-5.553,2.625-1.959,1.14-4.094,1.9-4.119,1.212" transform="translate(-1062.515 -1440.052)" fill="none" stroke="#404040" stroke-linecap="round" stroke-linejoin="round" stroke-width="1.5"/>
      <path id="Path_765" data-name="Path 765" d="M1071.692,1454.958s.944-1.345,1.835-1,.943-1.326,2.863-.365c.472.236.474-.15.867-.574.158-.114.519.036,1-.252.015-.131,1.615.62,1.766,1.19.122.135.917-.241,1.31-.118,0,0,1.06-.052,1.56,1.692" transform="translate(-1062.515 -1440.052)" fill="none" stroke="#404040" stroke-linecap="round" stroke-linejoin="round" stroke-width="1.5"/>
      <path id="Path_766" data-name="Path 766" d="M1078.26,1452.719s2-4.709,0-8.11" transform="translate(-1062.515 -1440.052)" fill="none" stroke="#404040" stroke-linecap="round" stroke-width="1.5"/>
      <path id="Path_767" data-name="Path 767" d="M1078.705,1449.535a3.838,3.838,0,0,1-2.261.2,2.638,2.638,0,0,1-2.2-2.745c.152-.985.827-1.7,1.452-2.867.661-1.235,1.341-2.8,1.112-3.849-.149-.682,1.623.284,3.169,1.639,1.66,1.445,3.288,3.7,2.483,5.584-.579,1.713-3.248,2.035-3.248,2.035" transform="translate(-1062.515 -1440.052)" fill="none" stroke="#404040" stroke-linecap="round" stroke-linejoin="round" stroke-width="1.5"/>
    </g>
  </g>
</svg>
